<svg height="1230" width="720" xmlns="http://www.w3.org/2000/svg">
<rect height="1230" fill="#555" width="720"></rect>
<text fill="#7f7" font-family="Courier New" font-size="12" xml:space="preserve">
<tspan x="10" y="26">3 megabytes installed</tspan>
<tspan x="10" y="42"></tspan>
<tspan x="10" y="58">node_modules</tspan>
<tspan x="10" y="74">└─┬ gulp-directory-sync@1.2.3 </tspan>
<tspan x="10" y="90">  ├── crc@3.4.4 </tspan>
<tspan x="10" y="106">  ├─┬ fs-extra@0.26.7 </tspan>
<tspan x="10" y="122">  │ ├── graceful-fs@4.1.11 </tspan>
<tspan x="10" y="138">  │ ├── jsonfile@2.4.0 </tspan>
<tspan x="10" y="154">  │ ├── klaw@1.3.1 </tspan>
<tspan x="10" y="170">  │ ├── path-is-absolute@1.0.1 </tspan>
<tspan x="10" y="186">  │ └─┬ rimraf@2.6.1 </tspan>
<tspan x="10" y="202">  │   └─┬ glob@7.1.1 </tspan>
<tspan x="10" y="218">  │     ├── fs.realpath@1.0.0 </tspan>
<tspan x="10" y="234">  │     ├─┬ inflight@1.0.6 </tspan>
<tspan x="10" y="250">  │     │ └── wrappy@1.0.2 </tspan>
<tspan x="10" y="266">  │     ├─┬ minimatch@3.0.3 </tspan>
<tspan x="10" y="282">  │     │ └─┬ brace-expansion@1.1.7 </tspan>
<tspan x="10" y="298">  │     │   ├── balanced-match@0.4.2 </tspan>
<tspan x="10" y="314">  │     │   └── concat-map@0.0.1 </tspan>
<tspan x="10" y="330">  │     └── once@1.4.0 </tspan>
<tspan x="10" y="346">  ├─┬ gulp-util@3.0.8 </tspan>
<tspan x="10" y="362">  │ ├── array-differ@1.0.0 </tspan>
<tspan x="10" y="378">  │ ├── array-uniq@1.0.3 </tspan>
<tspan x="10" y="394">  │ ├── beeper@1.1.1 </tspan>
<tspan x="10" y="410">  │ ├─┬ chalk@1.1.3 </tspan>
<tspan x="10" y="426">  │ │ ├── ansi-styles@2.2.1 </tspan>
<tspan x="10" y="442">  │ │ ├── escape-string-regexp@1.0.5 </tspan>
<tspan x="10" y="458">  │ │ ├─┬ has-ansi@2.0.0 </tspan>
<tspan x="10" y="474">  │ │ │ └── ansi-regex@2.1.1 </tspan>
<tspan x="10" y="490">  │ │ ├── strip-ansi@3.0.1 </tspan>
<tspan x="10" y="506">  │ │ └── supports-color@2.0.0 </tspan>
<tspan x="10" y="522">  │ ├── dateformat@2.0.0 </tspan>
<tspan x="10" y="538">  │ ├─┬ fancy-log@1.3.0 </tspan>
<tspan x="10" y="554">  │ │ └── time-stamp@1.0.1 </tspan>
<tspan x="10" y="570">  │ ├─┬ gulplog@1.0.0 </tspan>
<tspan x="10" y="586">  │ │ └── glogg@1.0.0 </tspan>
<tspan x="10" y="602">  │ ├─┬ has-gulplog@0.1.0 </tspan>
<tspan x="10" y="618">  │ │ └── sparkles@1.0.0 </tspan>
<tspan x="10" y="634">  │ ├── lodash._reescape@3.0.0 </tspan>
<tspan x="10" y="650">  │ ├── lodash._reevaluate@3.0.0 </tspan>
<tspan x="10" y="666">  │ ├── lodash._reinterpolate@3.0.0 </tspan>
<tspan x="10" y="682">  │ ├─┬ lodash.template@3.6.2 </tspan>
<tspan x="10" y="698">  │ │ ├── lodash._basecopy@3.0.1 </tspan>
<tspan x="10" y="714">  │ │ ├── lodash._basetostring@3.0.1 </tspan>
<tspan x="10" y="730">  │ │ ├── lodash._basevalues@3.0.0 </tspan>
<tspan x="10" y="746">  │ │ ├── lodash._isiterateecall@3.0.9 </tspan>
<tspan x="10" y="762">  │ │ ├─┬ lodash.escape@3.2.0 </tspan>
<tspan x="10" y="778">  │ │ │ └── lodash._root@3.0.1 </tspan>
<tspan x="10" y="794">  │ │ ├─┬ lodash.keys@3.1.2 </tspan>
<tspan x="10" y="810">  │ │ │ ├── lodash._getnative@3.9.1 </tspan>
<tspan x="10" y="826">  │ │ │ ├── lodash.isarguments@3.1.0 </tspan>
<tspan x="10" y="842">  │ │ │ └── lodash.isarray@3.0.4 </tspan>
<tspan x="10" y="858">  │ │ ├── lodash.restparam@3.6.1 </tspan>
<tspan x="10" y="874">  │ │ └── lodash.templatesettings@3.1.1 </tspan>
<tspan x="10" y="890">  │ ├── minimist@1.2.0 </tspan>
<tspan x="10" y="906">  │ ├─┬ multipipe@0.1.2 </tspan>
<tspan x="10" y="922">  │ │ └─┬ duplexer2@0.0.2 </tspan>
<tspan x="10" y="938">  │ │   └─┬ readable-stream@1.1.14 </tspan>
<tspan x="10" y="954">  │ │     ├── isarray@0.0.1 </tspan>
<tspan x="10" y="970">  │ │     └── string_decoder@0.10.31 </tspan>
<tspan x="10" y="986">  │ ├── object-assign@3.0.0 </tspan>
<tspan x="10" y="1002">  │ ├── replace-ext@0.0.1 </tspan>
<tspan x="10" y="1018">  │ └─┬ vinyl@0.5.3 </tspan>
<tspan x="10" y="1034">  │   ├── clone@1.0.2 </tspan>
<tspan x="10" y="1050">  │   └── clone-stats@0.0.1 </tspan>
<tspan x="10" y="1066">  └─┬ through2@2.0.3 </tspan>
<tspan x="10" y="1082">    ├─┬ readable-stream@2.2.9 </tspan>
<tspan x="10" y="1098">    │ ├── buffer-shims@1.0.0 </tspan>
<tspan x="10" y="1114">    │ ├── core-util-is@1.0.2 </tspan>
<tspan x="10" y="1130">    │ ├── inherits@2.0.3 </tspan>
<tspan x="10" y="1146">    │ ├── isarray@1.0.0 </tspan>
<tspan x="10" y="1162">    │ ├── process-nextick-args@1.0.7 </tspan>
<tspan x="10" y="1178">    │ ├── string_decoder@1.0.0 </tspan>
<tspan x="10" y="1194">    │ └── util-deprecate@1.0.2 </tspan>
<tspan x="10" y="1210">    └── xtend@4.0.1</tspan>
</text>
</svg>
